<svg width="50" height="50" viewBox="0 0 50 50" fill="none" xmlns="http://www.w3.org/2000/svg">
<path d="M35.4167 17.708C37.1426 17.708 38.5417 16.3089 38.5417 14.583C38.5417 12.8571 37.1426 11.458 35.4167 11.458C33.6908 11.458 32.2917 12.8571 32.2917 14.583C32.2917 16.3089 33.6908 17.708 35.4167 17.708Z" fill="white"/>
<path d="M33.8889 5C40.0222 5 45 9.97778 45 16.1111V33.8889C45 40.0222 40.0222 45 33.8889 45H16.1111C9.97778 45 5 40.0222 5 33.8889V16.1111C5 9.97778 9.97778 5 16.1111 5H25H33.8889Z" stroke="white" stroke-width="3" stroke-linecap="round" stroke-linejoin="round"/>
<path d="M25 16.1113C29.9111 16.1113 33.8889 20.0891 33.8889 25.0002C33.8889 29.9113 29.9111 33.8891 25 33.8891C20.0889 33.8891 16.1111 29.9113 16.1111 25.0002C16.1111 20.0891 20.0889 16.1113 25 16.1113Z" stroke="white" stroke-width="3" stroke-linecap="round" stroke-linejoin="round"/>
</svg>
