<svg width="40" height="40" viewBox="0 0 40 40" fill="none" xmlns="http://www.w3.org/2000/svg">
<path d="M15.56 34.31C17 34.745 18.455 35 20 35C23.9782 35 27.7936 33.4196 30.6066 30.6066C33.4196 27.7936 35 23.9782 35 20C35 18.0302 34.612 16.0796 33.8582 14.2597C33.1044 12.4399 31.9995 10.7863 30.6066 9.3934C29.2137 8.00052 27.5601 6.89563 25.7403 6.14181C23.9204 5.38799 21.9698 5 20 5C18.0302 5 16.0796 5.38799 14.2597 6.14181C12.4399 6.89563 10.7863 8.00052 9.3934 9.3934C6.58035 12.2064 5 16.0218 5 20C5 26.375 9.005 31.85 14.66 34.01C14.525 32.84 14.39 30.905 14.66 29.57L16.385 22.16C16.385 22.16 15.95 21.29 15.95 19.91C15.95 17.84 17.24 16.295 18.71 16.295C20 16.295 20.6 17.24 20.6 18.455C20.6 19.745 19.745 21.59 19.31 23.36C19.055 24.83 20.09 26.12 21.59 26.12C24.26 26.12 26.33 23.27 26.33 19.25C26.33 15.65 23.75 13.19 20.045 13.19C15.815 13.19 13.325 16.34 13.325 19.655C13.325 20.945 13.745 22.25 14.435 23.105C14.57 23.195 14.57 23.315 14.525 23.54L14.09 25.175C14.09 25.43 13.925 25.52 13.67 25.34C11.75 24.5 10.64 21.77 10.64 19.565C10.64 14.825 14 10.52 20.48 10.52C25.64 10.52 29.66 14.225 29.66 19.145C29.66 24.305 26.465 28.445 21.89 28.445C20.435 28.445 19.01 27.665 18.5 26.75L17.495 30.305C17.15 31.595 16.205 33.32 15.56 34.355V34.31Z" fill="#171719"/>
</svg>
