<svg width="50" height="50" viewBox="0 0 50 50" fill="none" xmlns="http://www.w3.org/2000/svg">
<path d="M19.08 44.08C21 44.66 22.94 45 25 45C30.3043 45 35.3914 42.8929 39.1421 39.1421C42.8929 35.3914 45 30.3043 45 25C45 22.3736 44.4827 19.7728 43.4776 17.3463C42.4725 14.9198 40.9993 12.715 39.1421 10.8579C37.285 9.00069 35.0802 7.5275 32.6537 6.52241C30.2272 5.51732 27.6264 5 25 5C22.3736 5 19.7728 5.51732 17.3463 6.52241C14.9198 7.5275 12.715 9.00069 10.8579 10.8579C7.10714 14.6086 5 19.6957 5 25C5 33.5 10.34 40.8 17.88 43.68C17.7 42.12 17.52 39.54 17.88 37.76L20.18 27.88C20.18 27.88 19.6 26.72 19.6 24.88C19.6 22.12 21.32 20.06 23.28 20.06C25 20.06 25.8 21.32 25.8 22.94C25.8 24.66 24.66 27.12 24.08 29.48C23.74 31.44 25.12 33.16 27.12 33.16C30.68 33.16 33.44 29.36 33.44 24C33.44 19.2 30 15.92 25.06 15.92C19.42 15.92 16.1 20.12 16.1 24.54C16.1 26.26 16.66 28 17.58 29.14C17.76 29.26 17.76 29.42 17.7 29.72L17.12 31.9C17.12 32.24 16.9 32.36 16.56 32.12C14 31 12.52 27.36 12.52 24.42C12.52 18.1 17 12.36 25.64 12.36C32.52 12.36 37.88 17.3 37.88 23.86C37.88 30.74 33.62 36.26 27.52 36.26C25.58 36.26 23.68 35.22 23 34L21.66 38.74C21.2 40.46 19.94 42.76 19.08 44.14V44.08Z" fill="white"/>
</svg>
