<svg width="40" height="40" viewBox="0 0 40 40" fill="none" xmlns="http://www.w3.org/2000/svg">
<path d="M27.8342 9.7C26.7446 8.39921 26.144 6.729 26.1441 5H21.2175V25.6667C21.1803 26.7853 20.7288 27.8451 19.9584 28.6225C19.188 29.3999 18.1588 29.834 17.088 29.8333C14.824 29.8333 12.9426 27.9 12.9426 25.5C12.9426 22.6333 15.5893 20.4833 18.3157 21.3667V16.1C12.8151 15.3333 8 19.8 8 25.5C8 31.05 12.4005 35 17.0721 35C22.0784 35 26.1441 30.75 26.1441 25.5V15.0167C28.1419 16.5164 30.5404 17.3211 33 17.3167V12.1667C33 12.1667 30.0026 12.3167 27.8342 9.7Z" fill="#171719"/>
</svg>
