<svg width="50" height="50" viewBox="0 0 50 50" fill="none" xmlns="http://www.w3.org/2000/svg">
<path d="M36.7679 11.2667C35.2424 9.53228 34.4016 7.30533 34.4018 5H27.5045V32.5556C27.4524 34.0471 26.8204 35.4602 25.7418 36.4967C24.6632 37.5332 23.2223 38.112 21.7232 38.1111C18.5536 38.1111 15.9196 35.5333 15.9196 32.3333C15.9196 28.5111 19.625 25.6444 23.442 26.8222V19.8C15.7411 18.7778 9 24.7333 9 32.3333C9 39.7333 15.1607 45 21.7009 45C28.7098 45 34.4018 39.3333 34.4018 32.3333V18.3556C37.1987 20.3552 40.5566 21.4281 44 21.4222V14.5556C44 14.5556 39.8036 14.7556 36.7679 11.2667Z" fill="white"/>
</svg>
