<svg width="40" height="40" viewBox="0 0 40 40" fill="none" xmlns="http://www.w3.org/2000/svg">
<path d="M28.3334 14.1667C29.7141 14.1667 30.8334 13.0474 30.8334 11.6667C30.8334 10.286 29.7141 9.16669 28.3334 9.16669C26.9527 9.16669 25.8334 10.286 25.8334 11.6667C25.8334 13.0474 26.9527 14.1667 28.3334 14.1667Z" fill="#171719"/>
<path d="M26.6667 5C31.2667 5 35 8.73333 35 13.3333V26.6667C35 31.2667 31.2667 35 26.6667 35H13.3333C8.73333 35 5 31.2667 5 26.6667V13.3333C5 8.73333 8.73333 5 13.3333 5H20H26.6667Z" stroke="#171719" stroke-width="2" stroke-linecap="round" stroke-linejoin="round"/>
<path d="M20 13.3331C23.6834 13.3331 26.6667 16.3165 26.6667 19.9998C26.6667 23.6831 23.6834 26.6665 20 26.6665C16.3167 26.6665 13.3334 23.6831 13.3334 19.9998C13.3334 16.3165 16.3167 13.3331 20 13.3331Z" stroke="#171719" stroke-width="2" stroke-linecap="round" stroke-linejoin="round"/>
</svg>
