<svg width="100" height="100" viewBox="0 0 100 100" fill="none" xmlns="http://www.w3.org/2000/svg">
<g clip-path="url(#clip0_13528_2223)">
<path d="M50 9.09091C44.6277 9.09091 39.3081 10.1491 34.3448 12.2049C29.3814 14.2608 24.8717 17.2741 21.0729 21.0729C17.2741 24.8717 14.2608 29.3814 12.2049 34.3448C10.1491 39.3081 9.09091 44.6277 9.09091 50C9.09091 55.3723 10.1491 60.6919 12.2049 65.6552C14.2608 70.6186 17.2741 75.1283 21.0729 78.9271C24.8717 82.7259 29.3814 85.7392 34.3448 87.7951C39.3081 89.851 44.6277 90.9091 50 90.9091C60.8498 90.9091 71.2551 86.599 78.9271 78.9271C86.599 71.2551 90.9091 60.8498 90.9091 50C90.9091 39.1502 86.599 28.7448 78.9271 21.0729C71.2551 13.401 60.8498 9.09091 50 9.09091ZM0 50C0 22.3864 22.3864 0 50 0C77.6136 0 100 22.3864 100 50C100 77.6136 77.6136 100 50 100C22.3864 100 0 77.6136 0 50Z" fill="white"/>
<path d="M69.4223 47.7111C70.8964 48.4482 70.8964 50.5518 69.4223 51.2889L40.8944 65.5528C39.5646 66.2177 38 65.2507 38 63.7639V35.2361C38 33.7493 39.5646 32.7823 40.8944 33.4472L69.4223 47.7111Z" fill="white"/>
</g>
<defs>
<clipPath id="clip0_13528_2223">
<rect width="100" height="100" fill="white"/>
</clipPath>
</defs>
</svg>
